<svg width="20" height="14" viewBox="0 0 20 14" fill="none" xmlns="http://www.w3.org/2000/svg">
<path d="M13.2284 12.614C13.2284 13.383 12.594 14 11.8033 14C11.0127 14 10.3721 13.383 10.3721 12.614C10.3721 11.845 11.0158 11.2219 11.8033 11.2219C12.5971 11.2219 13.2284 11.845 13.2284 12.614ZM5.29384 11.2219C4.50321 11.2219 3.86882 11.848 3.86882 12.614C3.86882 13.3799 4.50321 14 5.29384 14C6.08448 14 6.72512 13.383 6.72512 12.614C6.72512 11.845 6.08448 11.2219 5.29384 11.2219ZM14.4096 3.0152C4.96571 3.0152 2.55942 2.62614 0 0C1.07502 1.57143 1.66566 4.52584 11.6596 4.38298C22.0754 4.231 15.7222 7 13.8721 10.1246C19.7066 5.05775 23.8536 3.0152 14.4096 3.0152Z" fill="#333333"/>
</svg>
